#!OML:ASF E:\I on waltz\AllaLogoMonkeySwing\Project 1\Capture day 1\Session 1\Subject1.ASF
:FULLY-SPECIFIED
:DEGREES
283
root 3.71991 17.7166 26.7713 -2.18311 4.7136 1.64746
lowerback 5.4659 0.92621 1.78992
upperback -1.74923 1.52914 3.3545
thorax -4.93029 0.759021 2.32921
lowerneck -11.9141 1.4162 0.436297
upperneck 16.3121 2.37961 -2.82662
head 6.99205 0.928101 -0.759022
rclavicle 2.88238e-014 1.27222e-014
rhumerus -79.2152 -60.2476 -8.54047
rradius 12.2715
rwrist 48.5139
rhand -8.19359 -41.9279
rfingers 7.12502
rthumb 17.7226 -71.1403
lclavicle 2.88238e-014 1.27222e-014
lhumerus -42.8881 14.2223 84.0503
lradius 55.0689
lwrist 7.30342
lhand -8.22331 -17.4397
lfingers 7.12502
lthumb 17.694 11.7752
rfemur 4.3421 -9.90062 19.3853
rtibia 15.7216
rfoot -16.5496 -1.3557
rtoes 12.0323
lfemur 2.95797 -0.715419 -20.4192
ltibia 10.5886
lfoot -12.1043 -5.11812
ltoes -27.4077
284
root 3.72256 17.7199 26.8094 -1.97841 4.90877 1.56464
lowerback 5.50194 0.959667 1.77374
upperback -1.6609 1.56887 3.3207
thorax -4.85893 0.778636 2.29875
lowerneck -11.8882 1.3659 0.359747
upperneck 16.0179 2.33587 -2.93607
head 6.89247 0.896204 -0.78601
rclavicle 5.96354e-015 3.18055e-014
rhumerus -73.9284 -58.9465 -16.1419
rradius 12.7678
rwrist 44.9133
rhand -8.58777 -42.2177
rfingers 7.12502
rthumb 17.3432 -71.4639
lclavicle 5.96354e-015 3.18055e-014
lhumerus -42.4846 13.8973 84.3181
lradius 56.7446
lwrist 7.71244
lhand -8.27769 -17.62
lfingers 7.12502
lthumb 17.6416 11.5996
rfemur 4.29708 -9.91666 19.5155
rtibia 15.6292
rfoot -16.3682 -1.38717
rtoes 12.0952
lfemur 2.85741 -0.799485 -20.3127
ltibia 10.5582
lfoot -12.1783 -5.24621
ltoes -27.1687
285
root 3.72512 17.7224 26.8461 -1.82511 5.17561 1.33772
lowerback 5.76916 0.949201 1.9833
upperback -1.71903 1.58115 3.25909
thorax -5.06454 0.776538 2.112
lowerneck -11.6793 1.3347 0.305758
upperneck 15.7796 2.29438 -2.93321
head 6.7779 0.877982 -0.781206
rclavicle 8.24956e-015 5.40694e-014
rhumerus -68.3474 -57.0171 -24.3102
rradius 13.4302
rwrist 39.9413
rhand -8.69864 -41.8401
rfingers 7.12502
rthumb 17.2365 -71.0957
lclavicle 8.24956e-015 5.40694e-014
lhumerus -42.4261 13.4515 84.4209
lradius 58.2857
lwrist 8.09974
lhand -8.22999 -17.8405
lfingers 7.12502
lthumb 17.6875 11.3751
rfemur 4.26135 -10.0323 19.8031
rtibia 15.6305
rfoot -16.1969 -1.33527
rtoes 12.533
lfemur 2.77354 -0.935887 -20.0427
ltibia 10.5638
lfoot -12.2161 -5.48976
ltoes -26.8283
286
root 3.71626 17.7222 26.8787 -1.80384 5.394 1.03398
lowerback 5.73984 0.86616 1.85931
upperback -1.41142 1.45441 3.41484
thorax -4.7309 0.720829 2.35704
lowerneck -11.7604 1.41866 0.294103
upperneck 15.4073 2.43377 -3.13048
head 6.67772 0.931055 -0.829246
rclavicle -2.08724e-015 3.97569e-014
rhumerus -62.7388 -55.3772 -32.0322
rradius 14.1264
rwrist 34.6728
rhand -8.5205 -41.0268
rfingers 7.12502
rthumb 17.408 -70.2673
lclavicle -2.08724e-015 3.97569e-014
lhumerus -41.9678 13.434 84.6459
lradius 59.4952
lwrist 8.32204
lhand -8.24521 -18.0749
lfingers 7.12502
lthumb 17.6729 11.142
rfemur 4.30753 -9.80742 20.2959
rtibia 15.6091
rfoot -16.2094 -1.76314
rtoes 12.1361
lfemur 2.74653 -0.978808 -19.5502
ltibia 10.6219
lfoot -12.2236 -5.83166
ltoes -26.5973
287
root 3.71646 17.7255 26.9 -1.5676 5.59707 1.16067
lowerback 5.84136 0.809652 1.50003
upperback -1.31926 1.35033 3.37473
thorax -4.69623 0.678674 2.52644
lowerneck -11.8079 1.46541 0.170986
upperneck 15.2538 2.52032 -3.15656
head 6.63752 0.964804 -0.809101
rclavicle 1.46604e-014 -1.11319e-014
rhumerus -58.1686 -53.4582 -38.6227
rradius 15.0721
rwrist 29.4401
rhand -7.97719 -40.1277
rfingers 7.12502
rthumb 17.9308 -69.3211
lclavicle 1.46604e-014 -1.11319e-014
lhumerus -41.8489 13.2707 84.7714
lradius 60.434
lwrist 8.48436
lhand -8.43306 -18.2852
lfingers 7.12502
lthumb 17.4921 10.9479
rfemur 4.07191 -9.76115 20.1953
rtibia 15.7066
rfoot -16.4234 -2.06813
rtoes 10.9628
lfemur 2.43447 -0.998549 -19.657
ltibia 10.8002
lfoot -12.2332 -6.08359
ltoes -26.7211
